<?xml version="1.0" encoding="UTF-8" standalone="no"?>
<!-- Created with Inkscape (http://www.inkscape.org/) -->

<svg
   width="200.09386mm"
   height="60.586216mm"
   viewBox="0 0 200.09386 60.586216"
   version="1.1"
   id="svg10965"
   inkscape:version="1.2.2 (732a01da63, 2022-12-09)"
   sodipodi:docname="GDWiiInputBanner.svg"
   inkscape:export-filename="GDWiiInputBanner.png"
   inkscape:export-xdpi="100"
   inkscape:export-ydpi="100"
   xmlns:inkscape="http://www.inkscape.org/namespaces/inkscape"
   xmlns:sodipodi="http://sodipodi.sourceforge.net/DTD/sodipodi-0.dtd"
   xmlns="http://www.w3.org/2000/svg"
   xmlns:svg="http://www.w3.org/2000/svg">
  <sodipodi:namedview
     id="namedview10967"
     pagecolor="#ffffff"
     bordercolor="#000000"
     borderopacity="0.25"
     inkscape:showpageshadow="2"
     inkscape:pageopacity="0.0"
     inkscape:pagecheckerboard="0"
     inkscape:deskcolor="#d1d1d1"
     inkscape:document-units="mm"
     showgrid="false"
     inkscape:zoom="1.1893044"
     inkscape:cx="508.2803"
     inkscape:cy="199.69656"
     inkscape:window-width="2560"
     inkscape:window-height="1490"
     inkscape:window-x="-12"
     inkscape:window-y="-12"
     inkscape:window-maximized="1"
     inkscape:current-layer="g14058" />
  <defs
     id="defs10962">
    <rect
       x="332.12692"
       y="137.89574"
       width="339.69437"
       height="106.78511"
       id="rect511" />
  </defs>
  <g
     inkscape:label="Layer 1"
     inkscape:groupmode="layer"
     id="layer1"
     transform="translate(-7.4179875,-8.7196032)">
    <g
       id="g9946"
       transform="matrix(0.63487162,0.17011334,-0.17048423,0.63625582,-18.346156,-39.131971)"
       style="stroke-width:1.51979">
      <path
         id="path9730"
         style="color:#000000;fill:#478cbf;stroke-width:0.607918;stroke-linecap:round;-inkscape-stroke:none"
         d="m 78.427487,54.451283 c -3.300684,0 -5.964494,2.663809 -5.964494,5.964494 v 57.511733 c 0,3.3007 2.66381,5.96295 5.964494,5.96295 h 10.496517 c 3.300684,0 5.962943,-2.66225 5.962943,-5.96295 V 60.415777 c 0,-3.300685 -2.662259,-5.964494 -5.962943,-5.964494 z m -1.647962,2.89233 c 0.846445,0 1.544609,0.698683 1.544609,1.545125 0,0.846442 -0.698164,1.544609 -1.544609,1.544609 -0.846442,0 -1.547192,-0.698167 -1.547192,-1.544609 0,-0.846442 0.70075,-1.545125 1.547192,-1.545125 z m 5.242058,3.328479 h 3.306775 v 4.02146 h 4.02301 v 3.306258 h -4.02301 v 4.02146 h -3.306775 v -4.02146 h -4.02146 v -3.306258 h 4.02146 v -3.922241 z m 1.654162,14.636316 c 1.829371,0 3.324345,1.494975 3.324345,3.324345 0,1.829368 -1.494974,3.326412 -3.324345,3.326412 -1.829367,0 -3.325895,-1.497044 -3.325895,-3.326412 0,-1.82937 1.496528,-3.324345 3.325895,-3.324345 z M 78.00219,87.792917 c 1.030742,0 1.878438,0.848213 1.878438,1.878955 0,1.030742 -0.847696,1.878955 -1.878438,1.878955 -1.030742,0 -1.878955,-0.848213 -1.878955,-1.878955 0,-1.030742 0.848213,-1.878955 1.878955,-1.878955 z m 11.345561,0 c 1.030742,0 1.878955,0.848213 1.878955,1.878955 0,1.030742 -0.848213,1.878955 -1.878955,1.878955 -1.030742,0 -1.878956,-0.848213 -1.878956,-1.878955 0,-1.030742 0.848214,-1.878955 1.878956,-1.878955 z m -5.672006,0.314709 c 0.856985,0 1.564246,0.707263 1.564246,1.564246 0,0.856983 -0.707261,1.564246 -1.564246,1.564246 -0.856983,0 -1.564245,-0.707263 -1.564245,-1.564246 0,-0.856983 0.707262,-1.564246 1.564245,-1.564246 z m 0,14.572234 c 1.215041,0 2.212785,0.99775 2.212785,2.21279 0,1.21504 -0.997744,2.21278 -2.212785,2.21278 -1.215039,0 -2.212784,-0.99774 -2.212784,-2.21278 0,-1.21504 0.997745,-2.21279 2.212784,-2.21279 z m 0,7.50962 c 1.215041,0 2.212785,0.99775 2.212785,2.21279 0,1.21505 -0.997744,2.21278 -2.212785,2.21278 -1.215039,0 -2.212784,-0.99773 -2.212784,-2.21278 0,-1.21504 0.997745,-2.21279 2.212784,-2.21279 z" />
      <g
         id="g594-0-7"
         transform="translate(1.8415916,1.1107763)"
         style="stroke-width:1.51979">
        <path
           id="path12755-1-5"
           style="fill:#478cbf;fill-opacity:1;stroke:#478cbf;stroke-width:0.607918;stroke-linecap:round;stroke-dasharray:none;stroke-opacity:1;stop-color:#000000"
           d="m 109.65925,73.97904 c -1.92895,5.6e-5 -3.42881,0.960092 -4.59559,2.317171 -0.48628,0.518467 -0.90087,1.107787 -1.22783,1.751831 -0.65529,1.129761 -1.15985,2.349408 -1.54668,3.45612 -1.14222,3.268016 -0.88109,6.389035 -0.68729,10.555428 0.43964,9.45129 3.74261,17.13398 8.03,17.13435 0.12743,1e-5 0.25344,-0.0207 0.38034,-0.0207 6.57538,-0.88303 8.22791,-14.001741 8.4093,-17.11368 0.19381,-4.166393 0.45495,-7.287412 -0.68729,-10.555428 -0.38671,-1.106445 -0.89058,-2.326072 -1.54565,-3.455603 -0.32702,-0.644362 -0.74187,-1.233663 -1.22834,-1.752348 -1.16678,-1.357079 -2.66716,-2.317115 -4.59611,-2.317171 -0.11823,-3e-6 -0.23555,0.0036 -0.35243,0.0093 -0.11687,-0.0057 -0.2342,-0.0093 -0.35243,-0.0093 z m 0.35243,5.738151 a 4.3260064,4.3260064 0 0 1 4.32583,4.325834 4.3260064,4.3260064 0 0 1 -4.32583,4.326351 4.3260064,4.3260064 0 0 1 -4.32583,-4.326351 4.3260064,4.3260064 0 0 1 4.32583,-4.325834 z" />
        <circle
           style="fill:#478cbf;fill-opacity:1;stroke:none;stroke-width:0.607918;stroke-linecap:round;stroke-dasharray:none;stroke-opacity:1;stop-color:#000000"
           id="path12895-5-2-4"
           cx="110.01168"
           cy="84.043137"
           r="3.0849628" />
      </g>
      <g
         id="g599-4-1"
         transform="translate(1.6954286,1.1107763)"
         style="stroke-width:1.51979">
        <rect
           style="fill:#478cbf;fill-opacity:1;stroke:#478cbf;stroke-width:0.607918;stroke-linecap:round;stroke-dasharray:none;stroke-opacity:1;stop-color:#000000"
           id="rect12663-9-3"
           width="8.3425865"
           height="8.5650558"
           x="77.808525"
           y="123.91521"
           rx="2.0308566"
           ry="2.0264385" />
        <rect
           style="fill:#478cbf;fill-opacity:1;stroke:#478cbf;stroke-width:0.607918;stroke-linecap:round;stroke-dasharray:none;stroke-opacity:1;stop-color:#000000"
           id="rect12663-4-2-4"
           width="2.8690593"
           height="3.7105451"
           x="108.38009"
           y="110.27346"
           rx="1.081982"
           ry="1.0796281" />
        <path
           style="fill:none;stroke:#478cbf;stroke-width:2.88761;stroke-linecap:round;stroke-dasharray:none;stroke-opacity:1;stop-color:#000000"
           d="m 82.069389,131.33883 c 0,0 -0.188528,4.46644 1.07829,6.36639 2.720791,4.08059 7.169911,3.63658 11.556823,3.63658 7.154928,0.0374 11.019038,-3.01426 13.055708,-7.78011 2.30838,-5.40165 2.26918,-13.00536 2.01306,-20.80928"
           id="path495-1-4"
           sodipodi:nodetypes="cscsc" />
      </g>
    </g>
    <g
       id="g14058"
       transform="matrix(0.66921489,0,0,0.66921489,77.094037,-54.172608)"
       style="stroke-width:1.49429">
      <path
         id="rect358"
         style="fill:#478cbf;fill-opacity:1;stroke:none;stroke-width:0.597717;stroke-linecap:round;stop-color:#000000"
         d="M -31.119752 113.80443 C -35.386272 113.80443 -38.821624 117.23894 -38.821624 121.50553 L -38.821624 156.9848 C -38.821624 161.2514 -35.386272 164.68667 -31.119752 164.68667 L -13.838802 164.68667 L -13.838802 156.08056 C -13.838802 153.69583 -12.183734 151.66592 -10.012577 151.66592 C -7.8414197 151.66592 -6.183262 153.69583 -6.183262 156.08056 L -6.183262 164.68667 L -1.0790537 164.68667 L -1.0790537 156.08056 C -1.0790537 153.69583 0.57678033 151.66592 2.7479442 151.66592 C 4.919086 151.66592 6.5780308 153.69583 6.5780308 156.08056 L 6.5780308 164.68667 L 24.65048 164.68667 L 24.65048 156.08056 C 24.65048 153.64413 26.629457 151.66592 29.065891 151.66592 L 128.43734 151.66592 C 130.87376 151.66592 132.85275 153.64413 132.85275 156.08056 L 132.85275 164.68667 L 156.0155 164.68667 L 156.0155 156.08056 C 156.0155 153.64413 157.99766 151.66592 160.434 151.66592 L 161.76372 151.66592 C 164.20014 151.66592 166.18222 153.64413 166.18222 156.08056 L 166.18222 164.68667 L 187.18129 164.68667 C 191.44786 164.68667 194.88162 161.2514 194.88162 156.9848 L 194.88162 121.50553 C 194.88162 117.23894 191.44786 113.80443 187.18129 113.80443 L -31.119752 113.80443 z M -14.935319 119.67465 L 170.73354 119.67465 C 171.79876 119.67465 172.6563 120.53298 172.6563 121.59819 C 172.6563 122.66343 171.79876 123.52019 170.73354 123.52019 L -14.935319 123.52019 C -16.000535 123.52019 -16.858856 122.66343 -16.858856 121.59819 C -16.858856 120.53298 -16.000535 119.67465 -14.935319 119.67465 z M 33.512961 129.99041 C 34.328119 129.99041 35.09525 130.11139 35.814874 130.35411 C 36.534504 130.59044 37.172007 130.93248 37.726056 131.37958 C 38.286473 131.82032 38.744706 132.34708 39.101336 132.96027 C 39.457971 133.57346 39.6809 134.25386 39.770056 135.00118 L 36.789384 135.00118 C 36.706593 134.6371 36.576192 134.30813 36.397881 134.01431 C 36.219563 133.71411 35.990066 133.45908 35.709856 133.2483 C 35.436016 133.03751 35.121319 132.87734 34.764689 132.76876 C 34.414425 132.65379 34.025356 132.59656 33.598675 132.59656 C 32.802625 132.59656 32.114895 132.79149 31.53537 133.18112 C 30.962216 133.56436 30.520019 134.11359 30.207967 134.82898 C 29.902287 135.53799 29.749283 136.3843 29.749283 137.36796 C 29.749283 138.34522 29.905189 139.1879 30.217233 139.89689 C 30.529285 140.6059 30.975149 141.1559 31.554675 141.54553 C 32.134199 141.92878 32.828498 142.12004 33.637284 142.12004 C 34.299601 142.12004 34.882434 141.99541 35.385534 141.7463 C 35.888633 141.4908 36.27983 141.1365 36.560042 140.68299 C 36.837292 140.23807 36.979587 139.72663 36.98861 139.15018 L 33.885931 139.15018 L 33.885931 136.90773 L 39.865808 136.90773 L 39.865808 138.72856 C 39.865808 139.91024 39.594773 140.95147 39.053459 141.85209 C 38.518519 142.75272 37.776885 143.45846 36.827994 143.96945 C 35.879102 144.47405 34.789941 144.7262 33.560837 144.7262 C 32.21711 144.7262 31.035408 144.4197 30.016463 143.80652 C 29.00389 143.19332 28.211262 142.33396 27.638102 141.22893 C 27.071322 140.12391 26.787916 138.83704 26.787916 137.36796 C 26.787916 135.84775 27.080784 134.53478 27.666673 133.42976 C 28.252565 132.32474 29.055433 131.47555 30.074377 130.88152 C 31.093315 130.28749 32.239279 129.99041 33.512961 129.99041 z M 75.596039 130.09542 C 76.060926 130.09542 76.446328 130.23966 76.752014 130.52708 C 77.057693 130.80813 77.210698 131.16531 77.210698 131.59966 C 77.210698 132.034 77.057693 132.39561 76.752014 132.68305 C 76.446328 132.96409 76.063827 133.1039 75.605305 133.1039 C 75.14041 133.1039 74.755781 132.96409 74.450101 132.68305 C 74.144416 132.39561 73.991418 132.034 73.991418 131.59966 C 73.991418 131.16531 74.144416 130.80813 74.450101 130.52708 C 74.755781 130.23966 75.137509 130.09542 75.596039 130.09542 z M 80.401407 130.09542 C 80.866302 130.09542 81.250931 130.23966 81.556611 130.52708 C 81.862297 130.80813 82.015295 131.16531 82.015295 131.59966 C 82.015295 132.034 81.862297 132.39561 81.556611 132.68305 C 81.250931 132.96409 80.869196 133.1039 80.410674 133.1039 C 79.945779 133.1039 79.560385 132.96409 79.254698 132.68305 C 78.949019 132.39561 78.796014 132.034 78.796014 131.59966 C 78.796014 131.16531 78.949019 130.80813 79.254698 130.52708 C 79.560385 130.23966 79.942885 130.09542 80.401407 130.09542 z M 41.642629 130.22052 L 44.584691 130.22052 L 46.724444 130.22052 C 48.150967 130.22052 49.386566 130.51107 50.430979 131.09233 C 51.475399 131.66719 52.280395 132.48817 52.847177 133.55486 C 53.413965 134.62156 53.697363 135.88593 53.697363 137.34865 C 53.697363 138.81136 53.413965 140.0794 52.847177 141.15248 C 52.280395 142.21918 51.471725 143.04303 50.420941 143.62428 C 49.376521 144.20553 48.125666 144.49609 46.667301 144.49609 L 44.584691 144.49609 L 41.642629 144.49609 L 41.642629 130.22052 z M 53.796977 130.22052 L 56.930543 130.22052 L 58.602345 137.31004 C 58.736086 137.89768 58.862814 138.48532 58.98381 139.07296 C 59.104813 139.6606 59.21995 140.24824 59.328209 140.83588 C 59.343973 140.9167 59.358245 140.9982 59.373768 141.07912 C 59.390297 140.99816 59.40654 140.91674 59.423189 140.83588 C 59.544184 140.24824 59.668791 139.6606 59.796159 139.07296 C 59.923527 138.48532 60.056823 137.89768 60.196928 137.31004 L 61.964482 130.22052 L 64.963687 130.22052 L 66.711936 137.31004 C 66.852042 137.89768 66.98611 138.48532 67.113478 139.07296 C 67.24721 139.6606 67.374712 140.24824 67.495714 140.83588 C 67.509242 140.90158 67.52242 140.96779 67.535868 141.03357 C 67.54794 140.96796 67.560089 140.90141 67.572161 140.83588 C 67.686792 140.24824 67.804052 139.6606 67.925054 139.07296 C 68.052422 138.48532 68.179922 137.89768 68.307291 137.31004 L 69.979093 130.22052 L 73.121926 130.22052 L 69.291067 144.49609 L 66.014644 144.49609 L 63.989949 136.70696 C 63.849843 136.13848 63.706308 135.5059 63.559837 134.80967 C 63.529343 134.65814 63.491888 134.48676 63.458679 134.32705 C 63.42578 134.48672 63.389553 134.65818 63.359066 134.80967 C 63.218967 135.5059 63.07253 136.13848 62.919687 136.70696 L 60.913525 144.49609 L 57.617797 144.49609 L 53.796977 130.22052 z M 83.878601 130.22052 L 86.820664 130.22052 L 86.820664 144.49609 L 83.878601 144.49609 L 83.878601 130.22052 z M 124.39103 131.61897 L 127.20877 131.61897 L 127.20877 134.37879 L 129.27208 134.37879 L 129.27208 136.5919 L 127.20877 136.5919 L 127.20877 141.37256 C 127.20877 141.71109 127.27581 141.9473 127.40954 142.08143 C 127.54965 142.21557 127.81044 142.28298 128.19255 142.28298 L 128.75625 142.28298 L 129.27208 142.28298 L 129.27208 144.49609 L 128.55548 144.49609 L 127.62885 144.49609 C 126.52074 144.49609 125.70261 144.27869 125.17404 143.84435 C 124.65183 143.41002 124.39103 142.73326 124.39103 141.81348 L 124.39103 136.5919 L 122.65205 136.5919 L 122.65205 134.37879 L 124.39103 134.37879 L 124.39103 131.61897 z M 44.584691 132.70158 L 44.584691 142.01503 L 46.514407 142.01503 C 47.469663 142.01503 48.259397 141.83605 48.8835 141.47835 C 49.507604 141.11428 49.972399 140.58674 50.278084 139.89689 C 50.583764 139.20068 50.735996 138.35147 50.735996 137.34865 C 50.735996 136.34583 50.583764 135.49951 50.278084 134.80967 C 49.972399 134.11985 49.507604 133.59595 48.8835 133.23826 C 48.26577 132.88056 47.485498 132.70158 46.542978 132.70158 L 44.584691 132.70158 z M 94.796665 134.16798 C 95.516296 134.16798 96.140663 134.32449 96.669237 134.63748 C 97.197813 134.94406 97.605045 135.39402 97.891622 135.98804 C 98.18457 136.58208 98.331001 137.3074 98.331001 138.16332 L 98.331001 144.49609 L 95.522528 144.49609 L 95.522528 138.68069 C 95.522528 138.00362 95.360835 137.48915 95.036045 137.13784 C 94.717628 136.78015 94.262296 136.60117 93.670032 136.60117 C 93.281564 136.60117 92.936921 136.68087 92.637608 136.84055 C 92.338293 137.00023 92.105896 137.2495 91.940316 137.58803 C 91.774735 137.92018 91.692441 138.34843 91.692441 138.87219 L 91.692441 144.49609 L 88.87393 144.49609 L 88.87393 134.37879 L 91.644565 134.37879 L 91.644565 135.98496 C 91.895103 135.56573 92.190912 135.21216 92.532589 134.92473 C 93.124846 134.42013 93.879613 134.16798 94.796665 134.16798 z M 106.12631 134.16798 C 106.98604 134.16798 107.7408 134.39113 108.39038 134.83825 C 109.04633 135.27898 109.55556 135.89561 109.91856 136.68765 C 110.28792 137.4733 110.47299 138.38625 110.47299 139.4274 C 110.47299 140.48133 110.29159 141.40445 109.9286 142.19649 C 109.5656 142.98852 109.05927 143.60516 108.40969 144.0459 C 107.76012 144.48663 106.99222 144.7069 106.107 144.7069 C 105.66758 144.7069 105.26035 144.64314 104.88462 144.51539 C 104.51525 144.38764 104.18376 144.1956 103.8908 143.94011 C 103.60423 143.68461 103.36526 143.36581 103.17421 142.98259 L 103.14564 142.98259 L 103.14564 148.50146 L 100.3279 148.50146 L 100.3279 134.37879 L 103.1078 134.37879 L 103.1078 135.74866 L 103.13637 135.74866 C 103.34653 135.39735 103.59786 135.1068 103.8908 134.87686 C 104.19012 134.64053 104.52818 134.46442 104.90392 134.34945 C 105.28602 134.22808 105.69326 134.16798 106.12631 134.16798 z M 74.201455 134.37879 L 77.019194 134.37879 L 77.019194 144.49609 L 74.201455 144.49609 L 74.201455 134.37879 z M 79.006051 134.37879 L 81.824563 134.37879 L 81.824563 144.49609 L 79.006051 144.49609 L 79.006051 134.37879 z M 112.02047 134.37879 L 114.83821 134.37879 L 114.83821 140.19419 C 114.83821 140.87126 115.00068 141.38861 115.32547 141.7463 C 115.65026 142.0976 116.10559 142.27371 116.69148 142.27371 C 117.07996 142.27371 117.42094 142.19324 117.71386 142.03356 C 118.01318 141.87387 118.24557 141.62538 118.41116 141.28685 C 118.5831 140.94831 118.66907 140.52005 118.66907 140.00269 L 118.66907 134.37879 L 121.47754 134.37879 L 121.47754 144.49609 L 118.71695 144.49609 L 118.71695 142.88992 C 118.46624 143.31129 118.17019 143.668 117.82815 143.95941 C 117.24225 144.45763 116.48749 144.7069 115.56407 144.7069 C 114.85081 144.7069 114.22721 144.55403 113.69227 144.24744 C 113.16369 143.93446 112.7528 143.48087 112.45985 142.88683 C 112.1669 142.28642 112.02047 141.56109 112.02047 140.71156 L 112.02047 134.37879 z M 105.38114 136.44827 C 104.90988 136.44827 104.49241 136.57291 104.12941 136.82201 C 103.77278 137.06473 103.49595 137.40963 103.29853 137.85676 C 103.10748 138.29748 103.01205 138.8206 103.01205 139.4274 C 103.01205 140.02782 103.10748 140.5517 103.29853 140.99882 C 103.49595 141.44594 103.77278 141.79448 104.12941 142.0436 C 104.49241 142.28632 104.90988 142.4073 105.38114 142.4073 C 105.83967 142.4073 106.23453 142.29285 106.56569 142.0629 C 106.90321 141.82657 107.16401 141.48742 107.34869 141.04669 C 107.53974 140.59957 107.63518 140.05976 107.63518 139.4274 C 107.63518 138.79505 107.53974 138.25888 107.34869 137.81815 C 107.16401 137.37741 106.90321 137.03904 106.56569 136.80271 C 106.23453 136.56638 105.83967 136.44827 105.38114 136.44827 z M -10.012577 152.90529 C -11.395265 152.90529 -12.599429 154.25854 -12.599429 156.08056 L -12.599429 164.68667 L -7.4257236 164.68667 L -7.4257236 156.08056 C -7.4257236 154.25854 -8.6298889 152.90529 -10.012577 152.90529 z M 2.7479442 152.90529 C 1.3652615 152.90529 0.16186345 154.25854 0.16186345 156.08056 L 0.16186345 164.68667 L 5.3347971 164.68667 L 5.3347971 156.08056 C 5.3347971 154.25854 4.1306218 152.90529 2.7479442 152.90529 z M 29.065891 152.90529 C 27.295554 152.90529 25.889853 154.31022 25.889853 156.08056 L 25.889853 164.68667 L 131.61183 164.68667 L 131.61183 156.08056 C 131.61183 154.31022 130.20766 152.90529 128.43734 152.90529 L 29.065891 152.90529 z M 160.434 152.90529 C 158.66366 152.90529 157.25874 154.31022 157.25874 156.08056 L 157.25874 164.68667 L 164.94208 164.68667 L 164.94208 156.08056 C 164.94208 154.31022 163.53404 152.90529 161.76372 152.90529 L 160.434 152.90529 z " />
    </g>
  </g>
</svg>
