<?xml version="1.0" encoding="UTF-8" standalone="no"?>
<!-- Created with Inkscape (http://www.inkscape.org/) -->

<svg
   width="200.09386mm"
   height="60.586216mm"
   viewBox="0 0 200.09386 60.586216"
   version="1.1"
   id="svg10965"
   inkscape:version="1.2.2 (732a01da63, 2022-12-09)"
   sodipodi:docname="GDWiiInputBanner.svg"
   inkscape:export-filename="GDWiiInputBanner.png"
   inkscape:export-xdpi="100"
   inkscape:export-ydpi="100"
   xmlns:inkscape="http://www.inkscape.org/namespaces/inkscape"
   xmlns:sodipodi="http://sodipodi.sourceforge.net/DTD/sodipodi-0.dtd"
   xmlns="http://www.w3.org/2000/svg"
   xmlns:svg="http://www.w3.org/2000/svg">
  <sodipodi:namedview
     id="namedview10967"
     pagecolor="#ffffff"
     bordercolor="#000000"
     borderopacity="0.25"
     inkscape:showpageshadow="2"
     inkscape:pageopacity="0.0"
     inkscape:pagecheckerboard="0"
     inkscape:deskcolor="#d1d1d1"
     inkscape:document-units="mm"
     showgrid="false"
     inkscape:zoom="1.1893044"
     inkscape:cx="384.67864"
     inkscape:cy="171.10842"
     inkscape:window-width="2560"
     inkscape:window-height="1490"
     inkscape:window-x="-12"
     inkscape:window-y="-12"
     inkscape:window-maximized="1"
     inkscape:current-layer="g14058" />
  <defs
     id="defs10962">
    <rect
       x="332.12692"
       y="137.89574"
       width="339.69437"
       height="106.78511"
       id="rect511" />
  </defs>
  <g
     inkscape:label="Layer 1"
     inkscape:groupmode="layer"
     id="layer1"
     transform="translate(-7.4179875,-8.7196032)">
    <g
       id="g9946"
       transform="matrix(0.63487162,0.17011334,-0.17048423,0.63625582,-18.346156,-39.131971)"
       style="stroke-width:1.51979">
      <path
         id="path9730"
         style="color:#000000;fill:#478cbf;stroke-width:0.607918;stroke-linecap:round;-inkscape-stroke:none"
         d="m 78.427487,54.451283 c -3.300684,0 -5.964494,2.663809 -5.964494,5.964494 v 57.511733 c 0,3.3007 2.66381,5.96295 5.964494,5.96295 h 10.496517 c 3.300684,0 5.962943,-2.66225 5.962943,-5.96295 V 60.415777 c 0,-3.300685 -2.662259,-5.964494 -5.962943,-5.964494 z m -1.647962,2.89233 c 0.846445,0 1.544609,0.698683 1.544609,1.545125 0,0.846442 -0.698164,1.544609 -1.544609,1.544609 -0.846442,0 -1.547192,-0.698167 -1.547192,-1.544609 0,-0.846442 0.70075,-1.545125 1.547192,-1.545125 z m 5.242058,3.328479 h 3.306775 v 4.02146 h 4.02301 v 3.306258 h -4.02301 v 4.02146 h -3.306775 v -4.02146 h -4.02146 v -3.306258 h 4.02146 v -3.922241 z m 1.654162,14.636316 c 1.829371,0 3.324345,1.494975 3.324345,3.324345 0,1.829368 -1.494974,3.326412 -3.324345,3.326412 -1.829367,0 -3.325895,-1.497044 -3.325895,-3.326412 0,-1.82937 1.496528,-3.324345 3.325895,-3.324345 z M 78.00219,87.792917 c 1.030742,0 1.878438,0.848213 1.878438,1.878955 0,1.030742 -0.847696,1.878955 -1.878438,1.878955 -1.030742,0 -1.878955,-0.848213 -1.878955,-1.878955 0,-1.030742 0.848213,-1.878955 1.878955,-1.878955 z m 11.345561,0 c 1.030742,0 1.878955,0.848213 1.878955,1.878955 0,1.030742 -0.848213,1.878955 -1.878955,1.878955 -1.030742,0 -1.878956,-0.848213 -1.878956,-1.878955 0,-1.030742 0.848214,-1.878955 1.878956,-1.878955 z m -5.672006,0.314709 c 0.856985,0 1.564246,0.707263 1.564246,1.564246 0,0.856983 -0.707261,1.564246 -1.564246,1.564246 -0.856983,0 -1.564245,-0.707263 -1.564245,-1.564246 0,-0.856983 0.707262,-1.564246 1.564245,-1.564246 z m 0,14.572234 c 1.215041,0 2.212785,0.99775 2.212785,2.21279 0,1.21504 -0.997744,2.21278 -2.212785,2.21278 -1.215039,0 -2.212784,-0.99774 -2.212784,-2.21278 0,-1.21504 0.997745,-2.21279 2.212784,-2.21279 z m 0,7.50962 c 1.215041,0 2.212785,0.99775 2.212785,2.21279 0,1.21505 -0.997744,2.21278 -2.212785,2.21278 -1.215039,0 -2.212784,-0.99773 -2.212784,-2.21278 0,-1.21504 0.997745,-2.21279 2.212784,-2.21279 z" />
      <g
         id="g594-0-7"
         transform="translate(1.8415916,1.1107763)"
         style="stroke-width:1.51979">
        <path
           id="path12755-1-5"
           style="fill:#478cbf;fill-opacity:1;stroke:#478cbf;stroke-width:0.607918;stroke-linecap:round;stroke-dasharray:none;stroke-opacity:1;stop-color:#000000"
           d="m 109.65925,73.97904 c -1.92895,5.6e-5 -3.42881,0.960092 -4.59559,2.317171 -0.48628,0.518467 -0.90087,1.107787 -1.22783,1.751831 -0.65529,1.129761 -1.15985,2.349408 -1.54668,3.45612 -1.14222,3.268016 -0.88109,6.389035 -0.68729,10.555428 0.43964,9.45129 3.74261,17.13398 8.03,17.13435 0.12743,1e-5 0.25344,-0.0207 0.38034,-0.0207 6.57538,-0.88303 8.22791,-14.001741 8.4093,-17.11368 0.19381,-4.166393 0.45495,-7.287412 -0.68729,-10.555428 -0.38671,-1.106445 -0.89058,-2.326072 -1.54565,-3.455603 -0.32702,-0.644362 -0.74187,-1.233663 -1.22834,-1.752348 -1.16678,-1.357079 -2.66716,-2.317115 -4.59611,-2.317171 -0.11823,-3e-6 -0.23555,0.0036 -0.35243,0.0093 -0.11687,-0.0057 -0.2342,-0.0093 -0.35243,-0.0093 z m 0.35243,5.738151 a 4.3260064,4.3260064 0 0 1 4.32583,4.325834 4.3260064,4.3260064 0 0 1 -4.32583,4.326351 4.3260064,4.3260064 0 0 1 -4.32583,-4.326351 4.3260064,4.3260064 0 0 1 4.32583,-4.325834 z" />
        <circle
           style="fill:#478cbf;fill-opacity:1;stroke:none;stroke-width:0.607918;stroke-linecap:round;stroke-dasharray:none;stroke-opacity:1;stop-color:#000000"
           id="path12895-5-2-4"
           cx="110.01168"
           cy="84.043137"
           r="3.0849628" />
      </g>
      <g
         id="g599-4-1"
         transform="translate(1.6954286,1.1107763)"
         style="stroke-width:1.51979">
        <rect
           style="fill:#478cbf;fill-opacity:1;stroke:#478cbf;stroke-width:0.607918;stroke-linecap:round;stroke-dasharray:none;stroke-opacity:1;stop-color:#000000"
           id="rect12663-9-3"
           width="8.3425865"
           height="8.5650558"
           x="77.808525"
           y="123.91521"
           rx="2.0308566"
           ry="2.0264385" />
        <rect
           style="fill:#478cbf;fill-opacity:1;stroke:#478cbf;stroke-width:0.607918;stroke-linecap:round;stroke-dasharray:none;stroke-opacity:1;stop-color:#000000"
           id="rect12663-4-2-4"
           width="2.8690593"
           height="3.7105451"
           x="108.38009"
           y="110.27346"
           rx="1.081982"
           ry="1.0796281" />
        <path
           style="fill:none;stroke:#478cbf;stroke-width:2.88761;stroke-linecap:round;stroke-dasharray:none;stroke-opacity:1;stop-color:#000000"
           d="m 82.069389,131.33883 c 0,0 -0.188528,4.46644 1.07829,6.36639 2.720791,4.08059 7.169911,3.63658 11.556823,3.63658 7.154928,0.0374 11.019038,-3.01426 13.055708,-7.78011 2.30838,-5.40165 2.26918,-13.00536 2.01306,-20.80928"
           id="path495-1-4"
           sodipodi:nodetypes="cscsc" />
      </g>
    </g>
    <g
       id="g14058"
       transform="matrix(0.66921489,0,0,0.66921489,77.094037,-54.172608)"
       style="stroke-width:1.49429">
      <path
         id="rect358"
         style="fill:#478cbf;fill-opacity:1;stroke:none;stroke-width:0.597717;stroke-linecap:round;stop-color:#000000"
         d="m -35.773811,115.46659 c -4.26652,0 -7.701872,3.43451 -7.701872,7.7011 v 35.47927 c 0,4.2666 3.435352,7.70187 7.701872,7.70187 h 17.28095 v -8.60611 c 0,-2.38473 1.655068,-4.41464 3.826225,-4.41464 2.171157,0 3.829315,2.02991 3.829315,4.41464 v 8.60611 h 5.1042082 v -8.60611 c 0,-2.38473 1.655834,-4.41464 3.8269979,-4.41464 2.17114176,0 3.8300866,2.02991 3.8300866,4.41464 v 8.60611 H 19.996421 v -8.60611 c 0,-2.43643 1.978977,-4.41464 4.415411,-4.41464 h 99.371448 c 2.43642,0 4.41541,1.97821 4.41541,4.41464 v 8.60611 h 23.16275 v -8.60611 c 0,-2.43643 1.98216,-4.41464 4.4185,-4.41464 h 1.32972 c 2.43642,0 4.4185,1.97821 4.4185,4.41464 v 8.60611 h 20.99907 c 4.26657,0 7.70033,-3.43527 7.70033,-7.70187 v -35.47927 c 0,-4.26659 -3.43376,-7.7011 -7.70033,-7.7011 z m 16.184433,5.87022 H 166.07948 c 1.06522,0 1.92276,0.85833 1.92276,1.92354 0,1.06524 -0.85754,1.922 -1.92276,1.922 H -19.589378 c -1.065216,0 -1.923537,-0.85676 -1.923537,-1.922 0,-1.06521 0.858321,-1.92354 1.923537,-1.92354 z m 48.44828,10.31576 c 0.815158,0 1.582289,0.12098 2.301913,0.3637 0.71963,0.23633 1.357133,0.57837 1.911182,1.02547 0.560417,0.44074 1.01865,0.9675 1.37528,1.58069 0.356635,0.61319 0.579564,1.29359 0.66872,2.04091 h -2.980672 c -0.08279,-0.36408 -0.213192,-0.69305 -0.391503,-0.98687 -0.178318,-0.3002 -0.407815,-0.55523 -0.688025,-0.76601 -0.27384,-0.21079 -0.588537,-0.37096 -0.945167,-0.47954 -0.350264,-0.11497 -0.739333,-0.1722 -1.166014,-0.1722 -0.79605,0 -1.48378,0.19493 -2.063305,0.58456 -0.573154,0.38324 -1.015351,0.93247 -1.327403,1.64786 -0.30568,0.70901 -0.458684,1.55532 -0.458684,2.53898 0,0.97726 0.155906,1.81994 0.46795,2.52893 0.312052,0.70901 0.757916,1.25901 1.337442,1.64864 0.579524,0.38325 1.273823,0.57451 2.082609,0.57451 0.662317,0 1.24515,-0.12463 1.74825,-0.37374 0.503099,-0.2555 0.894296,-0.6098 1.174508,-1.06331 0.27725,-0.44492 0.419545,-0.95636 0.428568,-1.53281 h -3.102679 v -2.24245 h 5.979877 v 1.82083 c 0,1.18168 -0.271035,2.22291 -0.812349,3.12353 -0.53494,0.90063 -1.276574,1.60637 -2.225465,2.11736 -0.948892,0.5046 -2.038053,0.75675 -3.267157,0.75675 -1.343727,0 -2.525429,-0.3065 -3.544374,-0.91968 -1.012573,-0.6132 -1.805201,-1.47256 -2.378361,-2.57759 -0.56678,-1.10502 -0.850186,-2.39189 -0.850186,-3.86097 0,-1.52021 0.292868,-2.83318 0.878757,-3.9382 0.585892,-1.10502 1.38876,-1.95421 2.407704,-2.54824 1.018938,-0.59403 2.164902,-0.89111 3.438584,-0.89111 z m 42.083078,0.10501 c 0.464887,0 0.850289,0.14424 1.155975,0.43166 0.305679,0.28105 0.458684,0.63823 0.458684,1.07258 0,0.43434 -0.153005,0.79595 -0.458684,1.08339 -0.305686,0.28104 -0.688187,0.42085 -1.146709,0.42085 -0.464895,0 -0.849524,-0.13981 -1.155204,-0.42085 -0.305685,-0.28744 -0.458683,-0.64905 -0.458683,-1.08339 0,-0.43435 0.152998,-0.79153 0.458683,-1.07258 0.30568,-0.28742 0.687408,-0.43166 1.145938,-0.43166 z m 4.805368,0 c 0.464895,0 0.849524,0.14424 1.155204,0.43166 0.305686,0.28105 0.458684,0.63823 0.458684,1.07258 0,0.43434 -0.152998,0.79595 -0.458684,1.08339 -0.30568,0.28104 -0.687415,0.42085 -1.145937,0.42085 -0.464895,0 -0.850289,-0.13981 -1.155976,-0.42085 -0.305679,-0.28744 -0.458684,-0.64905 -0.458684,-1.08339 0,-0.43435 0.153005,-0.79153 0.458684,-1.07258 0.305687,-0.28742 0.688187,-0.43166 1.146709,-0.43166 z m -38.758778,0.1251 h 2.942062 2.139753 c 1.426523,0 2.662122,0.29055 3.706535,0.87181 1.04442,0.57486 1.849416,1.39584 2.416198,2.46253 0.566788,1.0667 0.850186,2.33107 0.850186,3.79379 0,1.46271 -0.283398,2.73075 -0.850186,3.80383 -0.566782,1.0667 -1.375452,1.89055 -2.426236,2.4718 -1.04442,0.58125 -2.295275,0.87181 -3.75364,0.87181 h -2.08261 -2.942062 z m 12.154348,0 h 3.133566 l 1.671802,7.08952 c 0.133741,0.58764 0.260469,1.17528 0.381465,1.76292 0.121003,0.58764 0.23614,1.17528 0.344399,1.76292 0.01576,0.0808 0.03004,0.16232 0.04556,0.24324 0.01653,-0.081 0.03277,-0.16238 0.04942,-0.24324 0.120995,-0.58764 0.245602,-1.17528 0.37297,-1.76292 0.127368,-0.58764 0.260664,-1.17528 0.400769,-1.76292 l 1.767554,-7.08952 h 2.999205 l 1.748249,7.08952 c 0.140106,0.58764 0.274174,1.17528 0.401542,1.76292 0.133732,0.58764 0.261234,1.17528 0.382236,1.76292 0.01353,0.0657 0.02671,0.13191 0.04015,0.19769 0.01207,-0.0656 0.02422,-0.13216 0.03629,-0.19769 0.114631,-0.58764 0.231891,-1.17528 0.352893,-1.76292 0.127368,-0.58764 0.254868,-1.17528 0.382237,-1.76292 l 1.671802,-7.08952 h 3.142833 l -3.830859,14.27557 h -3.276423 l -2.024695,-7.78913 c -0.140106,-0.56848 -0.283641,-1.20106 -0.430112,-1.89729 -0.03049,-0.15153 -0.06795,-0.32291 -0.101158,-0.48262 -0.0329,0.15967 -0.06913,0.33113 -0.09961,0.48262 -0.140099,0.69623 -0.286536,1.32881 -0.439379,1.89729 l -2.006162,7.78913 h -3.295728 z m 30.081624,0 h 2.942063 v 14.27557 h -2.942063 z m 40.512428,1.39845 h 2.81774 v 2.75982 h 2.06331 v 2.21311 h -2.06331 v 4.78066 c 0,0.33853 0.067,0.57474 0.20077,0.70887 0.14011,0.13414 0.4009,0.20155 0.78301,0.20155 h 0.5637 0.51583 v 2.21311 h -0.7166 -0.92663 c -1.10811,0 -1.92624,-0.2174 -2.45481,-0.65174 -0.52221,-0.43433 -0.78301,-1.11109 -0.78301,-2.03087 v -5.22158 h -1.73898 v -2.21311 h 1.73898 z m -79.806338,1.08261 v 9.31345 h 1.929716 c 0.955256,0 1.74499,-0.17898 2.369093,-0.53668 0.624104,-0.36407 1.088899,-0.89161 1.394584,-1.58146 0.30568,-0.69621 0.457912,-1.54542 0.457912,-2.54824 0,-1.00282 -0.152232,-1.84914 -0.457912,-2.53898 -0.305685,-0.68982 -0.77048,-1.21372 -1.394584,-1.57141 -0.61773,-0.3577 -1.398002,-0.53668 -2.340522,-0.53668 z m 50.211974,1.4664 c 0.719631,0 1.343998,0.15651 1.872572,0.4695 0.528576,0.30658 0.935808,0.75654 1.222385,1.35056 0.292948,0.59404 0.439379,1.31936 0.439379,2.17528 v 6.33277 h -2.808473 v -5.8154 c 0,-0.67707 -0.161693,-1.19154 -0.486483,-1.54285 -0.318417,-0.35769 -0.773749,-0.53667 -1.366013,-0.53667 -0.388468,0 -0.733111,0.0797 -1.032424,0.23938 -0.299315,0.15968 -0.531712,0.40895 -0.697292,0.74748 -0.165581,0.33215 -0.247875,0.7604 -0.247875,1.28416 v 5.6239 h -2.818511 v -10.1173 h 2.770635 v 1.60617 c 0.250538,-0.41923 0.546347,-0.7728 0.888024,-1.06023 0.592257,-0.5046 1.347024,-0.75675 2.264076,-0.75675 z m 11.329644,0 c 0.85973,0 1.61449,0.22315 2.26407,0.67027 0.65595,0.44073 1.16518,1.05736 1.52818,1.8494 0.36936,0.78565 0.55443,1.6986 0.55443,2.73975 0,1.05393 -0.1814,1.97705 -0.54439,2.76909 -0.363,0.79203 -0.86933,1.40867 -1.51891,1.84941 -0.64957,0.44073 -1.41747,0.661 -2.30269,0.661 -0.43942,0 -0.84665,-0.0638 -1.22238,-0.19151 -0.369369,-0.12775 -0.700859,-0.31979 -0.993819,-0.57528 -0.28657,-0.2555 -0.52554,-0.5743 -0.71659,-0.95752 h -0.02857 v 5.51887 h -2.81774 v -14.12267 h 2.7799 v 1.36987 h 0.02857 c 0.21016,-0.35131 0.46149,-0.64186 0.75443,-0.8718 0.29932,-0.23633 0.63738,-0.41244 1.013119,-0.52741 0.3821,-0.12137 0.78934,-0.18147 1.22239,-0.18147 z m -31.924854,0.21081 h 2.817739 v 10.1173 h -2.817739 z m 4.804596,0 h 2.818512 v 10.1173 h -2.818512 z m 33.014418,0 h 2.81774 v 5.8154 c 0,0.67707 0.16247,1.19442 0.48726,1.55211 0.32479,0.3513 0.78012,0.52741 1.36601,0.52741 0.38848,0 0.72946,-0.0805 1.02238,-0.24015 0.29932,-0.15969 0.53171,-0.40818 0.6973,-0.74671 0.17194,-0.33854 0.25791,-0.7668 0.25791,-1.28416 v -5.6239 h 2.80847 v 10.1173 h -2.76059 v -1.60617 c -0.25071,0.42137 -0.54676,0.77808 -0.8888,1.06949 -0.5859,0.49822 -1.34066,0.74749 -2.26408,0.74749 -0.71326,0 -1.33686,-0.15287 -1.8718,-0.45946 -0.52858,-0.31298 -0.93947,-0.76657 -1.23242,-1.36061 -0.29295,-0.60041 -0.43938,-1.32574 -0.43938,-2.17527 z m -6.63933,2.06948 c -0.47126,0 -0.888729,0.12464 -1.251729,0.37374 -0.35663,0.24272 -0.63346,0.58762 -0.83088,1.03475 -0.19105,0.44072 -0.28648,0.96384 -0.28648,1.57064 0,0.60042 0.09543,1.1243 0.28648,1.57142 0.19742,0.44712 0.47425,0.79566 0.83088,1.04478 0.363,0.24272 0.780469,0.3637 1.251729,0.3637 0.45853,0 0.85339,-0.11445 1.18455,-0.3444 0.33752,-0.23633 0.59832,-0.57548 0.783,-1.01621 0.19105,-0.44712 0.28649,-0.98693 0.28649,-1.61929 0,-0.63235 -0.0954,-1.16852 -0.28649,-1.60925 -0.18468,-0.44074 -0.44548,-0.77911 -0.783,-1.01544 -0.33116,-0.23633 -0.72602,-0.35444 -1.18455,-0.35444 z m -115.393716,16.45702 c -1.382688,0 -2.586852,1.35325 -2.586852,3.17527 v 8.60611 h 5.173705 v -8.60611 c 0,-1.82202 -1.204165,-3.17527 -2.586853,-3.17527 z m 12.7605211,0 c -1.3826827,0 -2.5860808,1.35325 -2.5860808,3.17527 v 8.60611 h 5.17293366 v -8.60611 c 0,-1.82202 -1.2041753,-3.17527 -2.58685286,-3.17527 z m 26.3179469,0 c -1.770337,0 -3.176038,1.40493 -3.176038,3.17527 v 8.60611 H 126.95777 v -8.60611 c 0,-1.77034 -1.40417,-3.17527 -3.17449,-3.17527 z m 131.368108,0 c -1.77034,0 -3.17526,1.40493 -3.17526,3.17527 v 8.60611 h 7.68334 v -8.60611 c 0,-1.77034 -1.40804,-3.17527 -3.17836,-3.17527 z" />
    </g>
  </g>
</svg>
