<?xml version="1.0" encoding="UTF-8" standalone="no"?>
<!-- Created with Inkscape (http://www.inkscape.org/) -->

<svg
   width="96mm"
   height="96mm"
   viewBox="0 0 96 96"
   version="1.1"
   id="svg135"
   xml:space="preserve"
   inkscape:version="1.2.2 (732a01da63, 2022-12-09)"
   sodipodi:docname="GDWiiInputLogo.svg"
   inkscape:export-filename="GDWiiInputLogo.png"
   inkscape:export-xdpi="100"
   inkscape:export-ydpi="100"
   xmlns:inkscape="http://www.inkscape.org/namespaces/inkscape"
   xmlns:sodipodi="http://sodipodi.sourceforge.net/DTD/sodipodi-0.dtd"
   xmlns="http://www.w3.org/2000/svg"
   xmlns:svg="http://www.w3.org/2000/svg"><sodipodi:namedview
     id="namedview137"
     pagecolor="#ffffff"
     bordercolor="#000000"
     borderopacity="0.25"
     inkscape:showpageshadow="2"
     inkscape:pageopacity="0.0"
     inkscape:pagecheckerboard="0"
     inkscape:deskcolor="#d1d1d1"
     inkscape:document-units="mm"
     showgrid="false"
     inkscape:zoom="1.6819304"
     inkscape:cx="98.101562"
     inkscape:cy="95.426065"
     inkscape:window-width="2560"
     inkscape:window-height="1490"
     inkscape:window-x="-12"
     inkscape:window-y="-12"
     inkscape:window-maximized="1"
     inkscape:current-layer="g7290" /><defs
     id="defs132" /><g
     inkscape:label="Layer 1"
     inkscape:groupmode="layer"
     id="layer1"
     transform="translate(-70.767606,-53.340607)"><g
       id="g7290"><g
         id="g619"
         transform="translate(23.987283,3.5174654)"><g
           id="g12674"><rect
             style="fill:#478cbf;fill-opacity:1;stroke:#478cbf;stroke-width:0.4;stroke-linecap:round;stroke-dasharray:none;stroke-opacity:1;stop-color:#000000"
             id="rect490"
             width="22.024427"
             height="69.03981"
             x="70.967606"
             y="53.540607"
             rx="5.7641859"
             ry="5.7641864" /><path
             id="rect4100-6"
             style="fill:#ffffff;fill-opacity:1;stroke:#ffffff;stroke-width:0.2;stroke-linecap:round;stroke-dasharray:none;stroke-opacity:1;stop-color:#000000"
             d="m 80.42631,59.660178 v 4.022182 h -4.02218 v 3.106478 h 4.02218 v 4.02272 h 3.106479 v -4.02272 h 4.02272 V 63.68236 h -4.02272 v -4.022182 z" /><circle
             style="fill:#ffffff;fill-opacity:1;stroke:#ffffff;stroke-width:1.2;stroke-linecap:round;stroke-dasharray:none;stroke-opacity:1;stop-color:#000000"
             id="path4927"
             cx="81.97982"
             cy="77.5224"
             r="2.725245" /><circle
             style="fill:#ffffff;fill-opacity:1;stroke:#ffffff;stroke-width:1.2;stroke-linecap:round;stroke-dasharray:none;stroke-opacity:1;stop-color:#000000"
             id="path4927-6"
             cx="81.97982"
             cy="103.7818"
             r="1.6129001" /><circle
             style="fill:#ffffff;fill-opacity:1;stroke:#ffffff;stroke-width:1.2;stroke-linecap:round;stroke-dasharray:none;stroke-opacity:1;stop-color:#000000"
             id="path4927-6-0"
             cx="76.306862"
             cy="88.56163"
             r="1.2791967" /><circle
             style="fill:#ffffff;fill-opacity:1;stroke:#ffffff;stroke-width:1.2;stroke-linecap:round;stroke-dasharray:none;stroke-opacity:1;stop-color:#000000"
             id="path4927-6-0-7"
             cx="81.97982"
             cy="88.56163"
             r="0.96457809" /><circle
             style="fill:#ffffff;fill-opacity:1;stroke:#ffffff;stroke-width:1.2;stroke-linecap:round;stroke-dasharray:none;stroke-opacity:1;stop-color:#000000"
             id="path4927-6-0-7-0"
             cx="75.083282"
             cy="57.778286"
             r="0.94549328" /><circle
             style="fill:#ffffff;fill-opacity:1;stroke:#ffffff;stroke-width:1.2;stroke-linecap:round;stroke-dasharray:none;stroke-opacity:1;stop-color:#000000"
             id="path4927-6-0-9"
             cx="87.652779"
             cy="88.56163"
             r="1.2791967" /><circle
             style="fill:#ffffff;fill-opacity:1;stroke:#ffffff;stroke-width:1.2;stroke-linecap:round;stroke-dasharray:none;stroke-opacity:1;stop-color:#000000"
             id="path4927-6-9"
             cx="81.97982"
             cy="111.2917"
             r="1.6129001" /></g><g
           id="g594"><path
             id="path12755"
             style="fill:#478cbf;fill-opacity:1;stroke:#478cbf;stroke-width:0.4;stroke-linecap:round;stroke-dasharray:none;stroke-opacity:1;stop-color:#000000"
             d="m 109.65922,73.979281 c -1.92895,5.6e-5 -3.42897,0.959842 -4.59575,2.316923 -0.48628,0.518467 -0.90085,1.107602 -1.22781,1.751647 -0.65529,1.129762 -1.15991,2.349444 -1.54674,3.456157 -1.14223,3.268019 -0.8808,6.38898 -0.687,10.555377 0.43964,9.451295 3.74261,17.134045 8.03,17.134415 0.12743,1e-5 0.25325,-0.0207 0.38015,-0.0207 6.57539,-0.88304 8.22798,-14.001773 8.40937,-17.113715 0.19381,-4.166397 0.45524,-7.287358 -0.687,-10.555377 -0.38671,-1.106446 -0.89088,-2.325796 -1.54595,-3.455328 -0.32702,-0.644363 -0.74173,-1.233791 -1.2282,-1.752476 -1.16678,-1.357081 -2.66719,-2.316867 -4.59614,-2.316923 -0.11823,-3e-6 -0.23559,0.0034 -0.35247,0.0091 -0.11687,-0.0057 -0.23423,-0.0091 -0.35246,-0.0091 z"
             sodipodi:nodetypes="ccccssccsccscc" /><circle
             style="fill:#ffffff;fill-opacity:1;stroke:none;stroke-width:0.4;stroke-linecap:round;stroke-dasharray:none;stroke-opacity:1;stop-color:#000000"
             id="path12895"
             cx="110.01168"
             cy="84.043137"
             r="4.3260064" /><circle
             style="fill:#478cbf;fill-opacity:1;stroke:none;stroke-width:0.4;stroke-linecap:round;stroke-dasharray:none;stroke-opacity:1;stop-color:#000000"
             id="path12895-5"
             cx="110.01168"
             cy="84.043137"
             r="3.1580443" /></g><g
           id="g599"><rect
             style="fill:#478cbf;fill-opacity:1;stroke:#478cbf;stroke-width:0.4;stroke-linecap:round;stroke-dasharray:none;stroke-opacity:1;stop-color:#000000"
             id="rect12663"
             width="8.3425865"
             height="8.5650558"
             x="77.808525"
             y="123.91521"
             rx="1.334816"
             ry="1.334816" /><rect
             style="fill:#478cbf;fill-opacity:1;stroke:#478cbf;stroke-width:0.4;stroke-linecap:round;stroke-dasharray:none;stroke-opacity:1;stop-color:#000000"
             id="rect12663-4"
             width="2.8690593"
             height="3.7105451"
             x="108.19739"
             y="110.29173"
             rx="1.3348161"
             ry="0.78423333" /><path
             style="fill:none;stroke:#478cbf;stroke-width:1.9;stroke-linecap:round;stroke-dasharray:none;stroke-opacity:1;stop-color:#000000"
             d="m 82.069389,131.33883 c 0,0 -0.504802,4.72065 1.07829,6.36639 3.890095,4.04405 7.169911,3.63658 11.556823,3.63658 4.59716,0 8.489378,-0.6555 11.989078,-3.65758 4.32306,-3.70837 3.25572,-12.16377 3.20239,-15.61355 -0.0553,-3.57795 -0.1227,-9.31826 -0.1227,-9.31826"
             id="path495"
             sodipodi:nodetypes="cssssc" /></g></g></g></g></svg>
