<?xml version="1.0" encoding="UTF-8" standalone="no"?>
<!-- Created with Inkscape (http://www.inkscape.org/) -->

<svg
   width="178.29205mm"
   height="60.586216mm"
   viewBox="0 0 178.29205 60.586216"
   version="1.1"
   id="svg5"
   xml:space="preserve"
   inkscape:version="1.2.2 (732a01da63, 2022-12-09)"
   sodipodi:docname="docs_logo.svg"
   xmlns:inkscape="http://www.inkscape.org/namespaces/inkscape"
   xmlns:sodipodi="http://sodipodi.sourceforge.net/DTD/sodipodi-0.dtd"
   xmlns="http://www.w3.org/2000/svg"
   xmlns:svg="http://www.w3.org/2000/svg"><sodipodi:namedview
     id="namedview7"
     pagecolor="#ffffff"
     bordercolor="#000000"
     borderopacity="0.25"
     inkscape:showpageshadow="2"
     inkscape:pageopacity="0.0"
     inkscape:pagecheckerboard="0"
     inkscape:deskcolor="#d1d1d1"
     inkscape:document-units="mm"
     showgrid="false"
     inkscape:zoom="1.1893044"
     inkscape:cx="634.40444"
     inkscape:cy="191.28828"
     inkscape:window-width="2560"
     inkscape:window-height="1490"
     inkscape:window-x="-12"
     inkscape:window-y="-12"
     inkscape:window-maximized="1"
     inkscape:current-layer="layer1" /><defs
     id="defs2"><rect
       x="332.12692"
       y="137.89574"
       width="339.69437"
       height="106.78511"
       id="rect511" /><rect
       x="332.12692"
       y="137.89574"
       width="339.69437"
       height="106.78511"
       id="rect511-3" /><rect
       x="332.12692"
       y="137.89574"
       width="339.69437"
       height="106.78511"
       id="rect511-9" /></defs><g
     inkscape:label="Layer 1"
     inkscape:groupmode="layer"
     id="layer1"
     transform="translate(-28.331302,-115.80948)"><path
       id="rect358"
       style="fill:#478cbf;fill-opacity:1;stroke:none;stroke-width:0.4;stroke-linecap:round;stop-color:#000000"
       d="m 202.27995,158.85439 c 2.40642,0 4.3434,-1.93748 4.3434,-4.34392 v -20.01118 c 0,-2.40643 -1.93698,-4.3434 -4.3434,-4.3434 H 79.154677 c -2.40639,0 -4.34392,1.93697 -4.34392,4.3434 v 20.01118 c 0,2.40644 1.93753,4.34392 4.34392,4.34392 h 9.7467 v -4.85396 c 0,-1.34503 0.93343,-2.49029 2.158,-2.49029 1.22457,0 2.16008,1.14526 2.16008,2.49029 v 4.85396 h 2.878877 v -4.85396 c 0,-1.34503 0.933944,-2.49029 2.158518,-2.49029 1.224561,0 2.160058,1.14526 2.160058,2.49029 v 4.85396 h 10.19318 v -4.85396 c 0,-1.37419 1.1161,-2.49029 2.49029,-2.49029 h 56.04722 c 1.37419,0 2.49029,1.1161 2.49029,2.49029 v 4.85396 h 13.06432 v -4.85396 c 0,-1.37419 1.11769,-2.49029 2.49183,-2.49029 h 0.75035 c 1.37418,0 2.49183,1.1161 2.49183,2.49029 v 4.85396 z m -12.54291,0 v -4.85396 c 0,-0.9985 -0.79416,-1.79111 -1.79265,-1.79111 h -0.75035 c -0.9985,0 -1.79058,0.79261 -1.79058,1.79111 v 4.85396 z m -18.79885,0 v -4.85396 c 0,-0.9985 -0.79209,-1.79111 -1.79059,-1.79111 h -56.04722 c -0.9985,0 -1.79111,0.79261 -1.79111,1.79111 v 4.85396 z m -71.222527,0 v -4.85396 c 0,-1.02765 -0.678957,-1.79111 -1.458811,-1.79111 -0.779857,0 -1.458821,0.76346 -1.458821,1.79111 v 4.85396 z m -7.196936,0 v -4.85396 c 0,-1.02765 -0.67949,-1.79111 -1.45935,-1.79111 -0.77986,0 -1.45882,0.76346 -1.45882,1.79111 v 4.85396 z M 193.00351,135.63566 H 88.282807 c -0.6008,0 -1.08469,-0.48337 -1.08469,-1.08418 0,-0.6008 0.48389,-1.08468 1.08469,-1.08468 H 193.00351 c 0.6008,0 1.08417,0.48388 1.08417,1.08468 0,0.60081 -0.48337,1.08418 -1.08417,1.08418 z" /><rect
       style="fill:#3b3e3b;fill-opacity:1;stroke:none;stroke-width:1.2;stroke-linecap:round;stroke-dasharray:none;stroke-opacity:1;stop-color:#000000"
       id="rect1121-9-7"
       width="106.88967"
       height="2.168967"
       x="97.793449"
       y="223.43098"
       rx="1.0844835"
       ry="1.0844835" /><g
       id="g12674"
       transform="translate(-44.706277,15.826277)" /><g
       id="g9946"
       transform="matrix(0.63487162,0.17011334,-0.17048423,0.63625582,2.5671581,67.957903)"
       style="stroke-width:1.51979"><path
         id="path9730"
         style="color:#000000;fill:#478cbf;stroke-width:0.607918;stroke-linecap:round;-inkscape-stroke:none"
         d="m 78.427487,54.451283 c -3.300684,0 -5.964494,2.663809 -5.964494,5.964494 v 57.511733 c 0,3.3007 2.66381,5.96295 5.964494,5.96295 h 10.496517 c 3.300684,0 5.962943,-2.66225 5.962943,-5.96295 V 60.415777 c 0,-3.300685 -2.662259,-5.964494 -5.962943,-5.964494 z m -1.647962,2.89233 c 0.846445,0 1.544609,0.698683 1.544609,1.545125 0,0.846442 -0.698164,1.544609 -1.544609,1.544609 -0.846442,0 -1.547192,-0.698167 -1.547192,-1.544609 0,-0.846442 0.70075,-1.545125 1.547192,-1.545125 z m 5.242058,3.328479 h 3.306775 v 4.02146 h 4.02301 v 3.306258 h -4.02301 v 4.02146 h -3.306775 v -4.02146 h -4.02146 v -3.306258 h 4.02146 v -3.922241 z m 1.654162,14.636316 c 1.829371,0 3.324345,1.494975 3.324345,3.324345 0,1.829368 -1.494974,3.326412 -3.324345,3.326412 -1.829367,0 -3.325895,-1.497044 -3.325895,-3.326412 0,-1.82937 1.496528,-3.324345 3.325895,-3.324345 z M 78.00219,87.792917 c 1.030742,0 1.878438,0.848213 1.878438,1.878955 0,1.030742 -0.847696,1.878955 -1.878438,1.878955 -1.030742,0 -1.878955,-0.848213 -1.878955,-1.878955 0,-1.030742 0.848213,-1.878955 1.878955,-1.878955 z m 11.345561,0 c 1.030742,0 1.878955,0.848213 1.878955,1.878955 0,1.030742 -0.848213,1.878955 -1.878955,1.878955 -1.030742,0 -1.878956,-0.848213 -1.878956,-1.878955 0,-1.030742 0.848214,-1.878955 1.878956,-1.878955 z m -5.672006,0.314709 c 0.856985,0 1.564246,0.707263 1.564246,1.564246 0,0.856983 -0.707261,1.564246 -1.564246,1.564246 -0.856983,0 -1.564245,-0.707263 -1.564245,-1.564246 0,-0.856983 0.707262,-1.564246 1.564245,-1.564246 z m 0,14.572234 c 1.215041,0 2.212785,0.99775 2.212785,2.21279 0,1.21504 -0.997744,2.21278 -2.212785,2.21278 -1.215039,0 -2.212784,-0.99774 -2.212784,-2.21278 0,-1.21504 0.997745,-2.21279 2.212784,-2.21279 z m 0,7.50962 c 1.215041,0 2.212785,0.99775 2.212785,2.21279 0,1.21505 -0.997744,2.21278 -2.212785,2.21278 -1.215039,0 -2.212784,-0.99773 -2.212784,-2.21278 0,-1.21504 0.997745,-2.21279 2.212784,-2.21279 z" /><g
         id="g594-0-7"
         transform="translate(1.8415916,1.1107763)"
         style="stroke-width:1.51979"><path
           id="path12755-1-5"
           style="fill:#478cbf;fill-opacity:1;stroke:#478cbf;stroke-width:0.607918;stroke-linecap:round;stroke-dasharray:none;stroke-opacity:1;stop-color:#000000"
           d="m 109.65925,73.97904 c -1.92895,5.6e-5 -3.42881,0.960092 -4.59559,2.317171 -0.48628,0.518467 -0.90087,1.107787 -1.22783,1.751831 -0.65529,1.129761 -1.15985,2.349408 -1.54668,3.45612 -1.14222,3.268016 -0.88109,6.389035 -0.68729,10.555428 0.43964,9.45129 3.74261,17.13398 8.03,17.13435 0.12743,1e-5 0.25344,-0.0207 0.38034,-0.0207 6.57538,-0.88303 8.22791,-14.001741 8.4093,-17.11368 0.19381,-4.166393 0.45495,-7.287412 -0.68729,-10.555428 -0.38671,-1.106445 -0.89058,-2.326072 -1.54565,-3.455603 -0.32702,-0.644362 -0.74187,-1.233663 -1.22834,-1.752348 -1.16678,-1.357079 -2.66716,-2.317115 -4.59611,-2.317171 -0.11823,-3e-6 -0.23555,0.0036 -0.35243,0.0093 -0.11687,-0.0057 -0.2342,-0.0093 -0.35243,-0.0093 z m 0.35243,5.738151 a 4.3260064,4.3260064 0 0 1 4.32583,4.325834 4.3260064,4.3260064 0 0 1 -4.32583,4.326351 4.3260064,4.3260064 0 0 1 -4.32583,-4.326351 4.3260064,4.3260064 0 0 1 4.32583,-4.325834 z" /><circle
           style="fill:#478cbf;fill-opacity:1;stroke:none;stroke-width:0.607918;stroke-linecap:round;stroke-dasharray:none;stroke-opacity:1;stop-color:#000000"
           id="path12895-5-2-4"
           cx="110.01168"
           cy="84.043137"
           r="3.0849628" /></g><g
         id="g599-4-1"
         transform="translate(1.6954286,1.1107763)"
         style="stroke-width:1.51979"><rect
           style="fill:#478cbf;fill-opacity:1;stroke:#478cbf;stroke-width:0.607918;stroke-linecap:round;stroke-dasharray:none;stroke-opacity:1;stop-color:#000000"
           id="rect12663-9-3"
           width="8.3425865"
           height="8.5650558"
           x="77.808525"
           y="123.91521"
           rx="2.0308566"
           ry="2.0264385" /><rect
           style="fill:#478cbf;fill-opacity:1;stroke:#478cbf;stroke-width:0.607918;stroke-linecap:round;stroke-dasharray:none;stroke-opacity:1;stop-color:#000000"
           id="rect12663-4-2-4"
           width="2.8690593"
           height="3.7105451"
           x="108.38009"
           y="110.27346"
           rx="1.081982"
           ry="1.0796281" /><path
           style="fill:none;stroke:#478cbf;stroke-width:2.88761;stroke-linecap:round;stroke-dasharray:none;stroke-opacity:1;stop-color:#000000"
           d="m 82.069389,131.33883 c 0,0 -0.188528,4.46644 1.07829,6.36639 2.720791,4.08059 7.169911,3.63658 11.556823,3.63658 7.154928,0.0374 11.019038,-3.01426 13.055708,-7.78011 2.30838,-5.40165 2.26918,-13.00536 2.01306,-20.80928"
           id="path495-1-4"
           sodipodi:nodetypes="cscsc" /></g></g><text
       xml:space="preserve"
       transform="matrix(0.47934978,0,0,0.47934978,-54.376315,72.399972)"
       id="text509"
       style="font-style:normal;font-variant:normal;font-weight:normal;font-stretch:normal;font-size:19.0351px;font-family:Inter;-inkscape-font-specification:'Inter, @opsz=32.0,wght=700';font-variant-ligatures:normal;font-variant-caps:normal;font-variant-numeric:normal;font-variant-east-asian:normal;font-variation-settings:'opsz' 32, 'wght' 700;white-space:pre;shape-inside:url(#rect511);display:inline;fill:#ffffff;fill-opacity:1;stroke:none;stroke-width:0.834462;stroke-linecap:round;stroke-dasharray:none;stop-color:#000000"><tspan
         x="332.12695"
         y="155.51624"
         id="tspan9772">GDWiiInput Docs</tspan></text><rect
       style="fill:#478cbf;fill-opacity:1;stroke:none;stroke-width:0.4;stroke-linecap:round;stop-color:#000000"
       id="rect358-7"
       width="131.81287"
       height="28.698498"
       x="265.66022"
       y="154.97166"
       rx="4.343749"
       ry="4.343749" /><rect
       style="fill:#3b3e3b;fill-opacity:1;stroke:none;stroke-width:1.2;stroke-linecap:round;stroke-dasharray:none;stroke-opacity:1;stop-color:#000000"
       id="rect1121-9-6"
       width="106.88967"
       height="4.5286069"
       x="278.19601"
       y="175.83058"
       rx="5.1758008"
       ry="4.0634484" /><text
       xml:space="preserve"
       transform="matrix(0.60925219,0,0,0.60925219,83.205981,76.627238)"
       id="text509-2"
       style="font-style:normal;font-variant:normal;font-weight:normal;font-stretch:normal;font-size:19.0351px;font-family:Inter;-inkscape-font-specification:'Inter, @opsz=32.0,wght=700';font-variant-ligatures:normal;font-variant-caps:normal;font-variant-numeric:normal;font-variant-east-asian:normal;font-variation-settings:'opsz' 32, 'wght' 700;white-space:pre;shape-inside:url(#rect511-3);display:inline;fill:#ffffff;fill-opacity:1;stroke:none;stroke-width:0.656541;stroke-linecap:round;stroke-dasharray:none;stop-color:#000000"><tspan
         x="332.12695"
         y="155.51624"
         id="tspan9774">GDWiiInput Docs</tspan></text><rect
       style="fill:none;fill-opacity:1;stroke:#000000;stroke-width:1.1;stroke-linecap:round;stroke-dasharray:none;stroke-opacity:1;stop-color:#000000"
       id="rect3804-0"
       width="60.328125"
       height="12.780246"
       x="300.99567"
       y="149.18596"
       rx="2.1414192"
       ry="2.1414194" /><rect
       style="fill:none;fill-opacity:1;stroke:#000000;stroke-width:1.1;stroke-linecap:round;stroke-dasharray:none;stroke-opacity:1;stop-color:#000000"
       id="rect3804-5-8"
       width="3.6181142"
       height="12.780246"
       x="372.2175"
       y="149.18596"
       rx="2.1414189"
       ry="2.1414194" /><rect
       style="fill:none;fill-opacity:1;stroke:#000000;stroke-width:1.1;stroke-linecap:round;stroke-dasharray:none;stroke-opacity:1;stop-color:#000000"
       id="rect3804-5-4-4"
       width="5.0338984"
       height="12.780246"
       x="282.19717"
       y="149.18596"
       rx="2.1414189"
       ry="2.1414194" /><rect
       style="fill:none;fill-opacity:1;stroke:#000000;stroke-width:1.1;stroke-linecap:round;stroke-dasharray:none;stroke-opacity:1;stop-color:#000000"
       id="rect3804-5-0-4"
       width="3.6181142"
       height="12.780246"
       x="379.4144"
       y="149.18596"
       rx="2.1414189"
       ry="2.1414194" /></g></svg>
